<svg width="56" height="56" viewBox="0 0 56 56" fill="none" xmlns="http://www.w3.org/2000/svg">
<path d="M27.6 0C12.3736 0 0 12.3736 0 27.6C0 42.8264 12.3736 55.2 27.6 55.2C42.8264 55.2 55.2 42.8264 55.2 27.6C55.2 12.3736 42.8264 0 27.6 0ZM27.6 2.4C41.5288 2.4 52.8 13.6712 52.8 27.6C52.8 27.6856 52.7938 27.77 52.793 27.8555C52.0254 27.7846 51.1386 27.7173 50.0109 27.6773C48.4165 27.6208 46.4067 27.6372 44.1281 27.75C44.2126 27.1616 44.2718 26.5649 44.2734 25.9523C44.3896 23.7052 43.635 21.603 42.4078 19.7461C42.7043 18.7216 43.0521 17.4183 43.1391 15.9398C43.2382 14.2547 43.0927 12.3861 41.7398 11.1234L41.393 10.8H40.9195C37.6998 10.8 35.496 12.1479 34.1484 13.2164C32.2026 12.4632 30.0147 12 27.6 12C25.1716 12 22.9626 12.4697 20.9367 13.2211C19.5899 12.152 17.3841 10.8 14.1609 10.8H13.6898L13.343 11.1211C12.0251 12.3448 11.9037 14.1621 11.9859 15.8391C12.0584 17.3178 12.3861 18.6626 12.6773 19.7367C11.4294 21.6298 10.6805 23.7864 10.6805 25.9195C10.6805 26.5335 10.7376 27.1321 10.8211 27.7219C8.65418 27.6214 6.72252 27.602 5.18906 27.6563C4.06142 27.6961 3.17453 27.7629 2.40703 27.8344C2.40632 27.756 2.4 27.6786 2.4 27.6C2.4 13.6712 13.6712 2.4 27.6 2.4ZM14.8758 13.357C17.2969 13.5865 19.1184 14.6676 19.9617 15.4172L20.5242 15.9141L21.218 15.6305C23.1157 14.849 25.2324 14.4 27.6 14.4C29.9676 14.4 32.0849 14.8513 33.8391 15.6188L34.5422 15.9281L35.1164 15.4172C35.96 14.6673 37.7846 13.5859 40.207 13.357C40.5291 13.891 40.809 14.6504 40.7414 15.7992C40.6605 17.1741 40.2928 18.6716 40.0148 19.5609L39.8344 20.1398L40.193 20.6297C41.3803 22.2488 41.9857 24.0011 41.8828 25.8539L41.8805 25.8867V25.9195C41.8805 28.9141 40.8021 31.3108 38.5055 33.0867C36.2089 34.8626 32.5832 36 27.4805 36C22.3777 36 18.7498 34.8626 16.4531 33.0867C14.1565 31.3108 13.0805 28.9141 13.0805 25.9195C13.0805 24.1619 13.7152 22.2283 14.8875 20.6297L15.2391 20.1516L15.0703 19.582C14.7922 18.6366 14.4514 17.1049 14.3836 15.7219C14.3272 14.5715 14.5995 13.8444 14.8758 13.357ZM8.26172 28.8258C9.10975 28.8366 10.0818 28.8824 11.0555 28.9313C11.1485 29.3054 11.2546 29.6735 11.3836 30.0328C7.41477 30.1165 4.44568 30.5156 2.61563 30.8578C2.53825 30.2574 2.47662 29.652 2.44219 29.0391C3.79465 28.9107 5.7012 28.7931 8.26172 28.8258ZM46.9383 28.8445C49.497 28.812 51.4029 28.9298 52.7555 29.0578C52.7211 29.662 52.6605 30.2588 52.5844 30.8508C50.6889 30.5031 47.6396 30.104 43.568 30.0398C43.6943 29.6876 43.7996 29.3259 43.8914 28.9594C44.9655 28.9018 46.0135 28.8563 46.9383 28.8445ZM11.8945 31.2234C12.6106 32.6584 13.6338 33.9396 14.9859 34.9852C16.8346 36.4146 19.2379 37.4134 22.1719 37.9477C21.788 38.342 21.4389 38.7751 21.1289 39.232L21.0563 39.1688C21.0629 39.1612 20.4597 39.4631 19.5586 39.5438C18.6575 39.6245 17.5459 39.6 16.5609 39.6C15.0909 39.6 14.4435 38.9055 13.4086 37.6406C12.8355 36.8683 12.1369 36.2428 11.4586 35.768C10.764 35.2818 10.1715 34.9386 9.43828 34.8164L9.33984 34.8H9.23906C8.67906 34.8 8.13718 34.8405 7.63125 35.4188C7.37828 35.7079 7.20393 36.2431 7.31719 36.6961C7.43044 37.1491 7.71703 37.4275 7.97344 37.5984C9.61351 38.6918 9.90335 40.8558 10.9313 42.7805C11.8912 44.6932 13.9628 45.6 16.0805 45.6H19.2V51.3633C10.7614 48.3846 4.39762 41.0455 2.79844 32.0438C4.63552 31.6977 7.71185 31.2817 11.8945 31.2234ZM43.0594 31.2328C47.3346 31.2694 50.4973 31.6849 52.4039 32.0367C50.8069 41.0418 44.4409 48.3838 36 51.3633V45.1195C36 43.2181 35.3756 41.1213 34.2891 39.3727C33.9592 38.8418 33.5711 38.3397 33.1383 37.8891C35.9165 37.3402 38.1988 36.3586 39.975 34.9852C41.3242 33.9419 42.3451 32.6645 43.0594 31.2328ZM26.0391 38.5195H29.4C30.3754 38.5195 31.4165 39.2969 32.25 40.6383C33.0835 41.9797 33.6 43.781 33.6 45.1195V52.0781C31.6769 52.5471 29.6685 52.8 27.6 52.8C25.5315 52.8 23.5231 52.5471 21.6 52.0781V45.1195C21.6 43.8106 22.1614 42.0136 23.0508 40.6664C23.9402 39.3192 25.0637 38.5195 26.0391 38.5195ZM12.3703 39.9375C13.4092 41.0151 14.667 42 16.5609 42C17.4959 42 18.663 42.0337 19.7719 41.9344C19.7758 41.934 19.7797 41.9324 19.7836 41.932C19.6375 42.352 19.5285 42.7746 19.4367 43.2H16.0805C14.6005 43.2 13.5549 42.6653 13.0734 41.7023L13.0641 41.6859L13.057 41.6719C12.8597 41.3054 12.6008 40.5727 12.3703 39.9375Z" fill="#503404"/>
</svg>
