<svg width="53" height="41" viewBox="0 0 53 41" fill="none" xmlns="http://www.w3.org/2000/svg">
<path d="M47.0413 0.00563431C45.7019 -0.0530473 44.3363 0.347244 43.2107 1.17868L40.19 3.40876L26.412 13.5945L12.763 3.50544C12.5728 3.31958 12.3217 3.20891 12.0562 3.19392H12.3312L9.61984 1.18727C8.49347 0.353776 7.12589 -0.0487654 5.78488 0.00993118C4.44386 0.0686277 3.13047 0.58767 2.11105 1.59333C0.816064 2.87007 0.0120241 4.65587 0.0120241 6.61423V10.3912C-0.00400804 10.4987 -0.00400804 10.6081 0.0120241 10.7156V36.4131C0.0120241 38.5264 1.74872 40.2631 3.86202 40.2631H12.112C12.4038 40.263 12.6835 40.1471 12.8898 39.9408C13.0961 39.7346 13.212 39.4548 13.212 39.1631V20.8734L25.7589 30.1482C25.9481 30.2878 26.177 30.3631 26.412 30.3631C26.6471 30.3631 26.876 30.2878 27.0651 30.1482L39.612 20.8734V39.1631C39.6121 39.4548 39.728 39.7346 39.9342 39.9408C40.1405 40.1471 40.4203 40.263 40.712 40.2631H48.962C51.0753 40.2631 52.812 38.5264 52.812 36.4131V10.6941C52.8245 10.5993 52.8245 10.5032 52.812 10.4084V6.61423C52.812 4.67993 52.0315 2.90242 50.7538 1.62341C50.7169 1.58648 50.7045 1.57625 50.7194 1.59118C50.7173 1.58902 50.7152 1.58688 50.713 1.58474C49.6938 0.581299 48.3808 0.0643157 47.0413 0.00563431ZM46.921 2.20349C47.7529 2.2361 48.5595 2.55163 49.1704 3.1531C49.1912 3.17363 49.2064 3.18914 49.1962 3.17888C50.0723 4.05587 50.612 5.27053 50.612 6.61423V10.0088L41.812 16.5121V5.06306C41.8125 5.02577 41.8111 4.98848 41.8077 4.95134L44.5169 2.94899H44.5191C45.2326 2.42193 46.0891 2.17087 46.921 2.20349ZM5.90519 2.20993C6.73805 2.17733 7.59751 2.42714 8.31144 2.95544L11.0163 4.95563C11.0131 4.99135 11.0117 5.0272 11.012 5.06306V16.5121L2.21202 10.0088V6.61423C2.21202 5.25499 2.76396 4.0388 3.65577 3.15954C4.26656 2.557 5.07233 2.24253 5.90519 2.20993ZM39.612 6.57126V18.1384L26.412 27.8945L13.212 18.1384V6.57341L25.7589 15.8482C25.9481 15.9878 26.177 16.0631 26.412 16.0631C26.6471 16.0631 26.876 15.9878 27.0651 15.8482L39.612 6.57126ZM2.21202 12.7437L11.012 19.2492V38.0631H3.86202C2.93713 38.0631 2.21202 37.338 2.21202 36.4131V12.7437ZM50.612 12.7437V36.4131C50.612 37.338 49.8869 38.0631 48.962 38.0631H41.812V19.2492L50.612 12.7437Z" fill="black"/>
</svg>
