<svg width="60" height="60" viewBox="0 0 60 60" fill="none" xmlns="http://www.w3.org/2000/svg">
<path d="M10.7998 4.79999C7.50039 4.79999 4.7998 7.50057 4.7998 10.8V49.2C4.7998 52.4994 7.50039 55.2 10.7998 55.2H49.1998C52.4992 55.2 55.1998 52.4994 55.1998 49.2V10.8C55.1998 7.50057 52.4992 4.79999 49.1998 4.79999H10.7998ZM10.7998 7.19999H49.1998C51.202 7.19999 52.7998 8.79781 52.7998 10.8V49.2C52.7998 51.2022 51.202 52.8 49.1998 52.8H10.7998C8.79762 52.8 7.1998 51.2022 7.1998 49.2V10.8C7.1998 8.79781 8.79762 7.19999 10.7998 7.19999ZM16.7998 13.214C15.4855 13.214 14.3029 13.6069 13.4271 14.3437C12.5514 15.0806 12.0139 16.1814 12.0139 17.3601C12.0139 19.6008 13.9573 21.3475 16.4295 21.5203L16.4342 21.5226C16.552 21.5628 16.6754 21.5842 16.7998 21.5859C19.5274 21.5859 21.5857 19.6753 21.5857 17.3601C21.5855 17.339 21.5847 17.3179 21.5834 17.2969C21.4613 15.0166 19.4283 13.214 16.7998 13.214ZM16.7998 15.5859C18.4705 15.5859 19.1302 16.332 19.2021 17.3906C19.1876 18.4181 18.5519 19.214 16.7998 19.214C15.1373 19.214 14.3857 18.3627 14.3857 17.3601C14.3857 16.8589 14.5686 16.4811 14.9529 16.1578C15.3372 15.8345 15.9541 15.5859 16.7998 15.5859ZM13.1998 22.8C12.8816 22.8 12.5763 22.9265 12.3513 23.1515C12.1263 23.3765 11.9998 23.6817 11.9998 24V46.8C11.9998 47.1182 12.1263 47.4234 12.3513 47.6485C12.5763 47.8735 12.8816 48 13.1998 48H20.3998C20.7181 48 21.0233 47.8735 21.2483 47.6485C21.4733 47.4234 21.5998 47.1182 21.5998 46.8V39.7617V24C21.5998 23.6817 21.4733 23.3765 21.2483 23.1515C21.0233 22.9265 20.7181 22.8 20.3998 22.8H13.1998ZM23.9998 22.8C23.6816 22.8 23.3763 22.9265 23.1513 23.1515C22.9263 23.3765 22.7998 23.6817 22.7998 24V46.8C22.7998 47.1182 22.9263 47.4234 23.1513 47.6485C23.3763 47.8735 23.6816 48 23.9998 48H31.1998C31.5181 48 31.8233 47.8735 32.0483 47.6485C32.2733 47.4234 32.3998 47.1182 32.3998 46.8V34.8C32.3998 33.8044 32.6715 32.814 33.1498 32.1656C33.6281 31.5172 34.2316 31.1281 35.3787 31.1484C36.5616 31.1688 37.1878 31.574 37.6615 32.2101C38.1352 32.8463 38.3998 33.8 38.3998 34.8V46.8C38.3998 47.1182 38.5263 47.4234 38.7513 47.6485C38.9763 47.8735 39.2816 48 39.5998 48H46.7998C47.1181 48 47.4233 47.8735 47.6483 47.6485C47.8733 47.4234 47.9998 47.1182 47.9998 46.8V33.914C47.9998 30.3602 46.9471 27.5452 45.1428 25.6406C43.3384 23.736 40.8288 22.8 38.1748 22.8C35.6524 22.8 33.7328 23.6459 32.3998 24.5086V24C32.3998 23.6817 32.2733 23.3765 32.0483 23.1515C31.8233 22.9265 31.5181 22.8 31.1998 22.8H23.9998ZM14.3998 25.2H19.1998V39.7617V45.6H14.3998V25.2ZM25.1998 25.2H29.9998V27.0726C29.9999 27.3243 30.079 27.5695 30.2261 27.7737C30.3732 27.9779 30.5807 28.1306 30.8193 28.2105C31.0579 28.2903 31.3156 28.293 31.5559 28.2184C31.7962 28.1438 32.007 27.9955 32.1584 27.7945C32.1584 27.7945 34.0428 25.2 38.1748 25.2C40.2788 25.2 42.083 25.8991 43.4014 27.2906C44.7197 28.6821 45.5998 30.8259 45.5998 33.914V45.6H40.7998V34.8C40.7998 33.4 40.4644 31.9525 39.5881 30.7758C38.7118 29.599 37.238 28.7797 35.4209 28.7484C33.5944 28.716 32.0968 29.5524 31.2186 30.743C30.3403 31.9335 29.9998 33.3956 29.9998 34.8V45.6H25.1998V25.2Z" fill="black"/>
</svg>
