<?xml version="1.0" encoding="utf-8"?>
<!-- Generator: Adobe Illustrator 24.2.0, SVG Export Plug-In . SVG Version: 6.00 Build 0)  -->
<svg version="1.1" id="Layer_1" xmlns="http://www.w3.org/2000/svg" xmlns:xlink="http://www.w3.org/1999/xlink" x="0px" y="0px"
	 viewBox="0 0 24 24" style="enable-background:new 0 0 24 24;" xml:space="preserve">
<style type="text/css">
	.st0{fill:none;stroke:#000000;stroke-width:1.5;stroke-linecap:round;stroke-linejoin:round;}
</style>
<path class="st0" d="M1.2,13.9l7.5-7.5c0.4-0.4,1-0.4,1.3,0l7.5,7.5 M3.1,12.1v8.4c0,0.5,0.4,0.9,0.9,0.9h3.4v-4.1
	c0-0.5,0.4-0.9,0.9-0.9h1.9c0.5,0,0.9,0.4,0.9,0.9v4.1h3.4c0.5,0,0.9-0.4,0.9-0.9v-8.4 M6.2,21.4h6.9 M22.8,21.4h-6.9v-7.2h6.9V21.4
	z M21.9,10.2c0.1,0.8-0.8,1.5-2,1.7c-1.2,0.1-2.2-0.4-2.3-1.2c-0.1-0.8,0.8-1.5,2-1.7C20.8,8.8,21.8,9.4,21.9,10.2z M19.6,6
	c0,0.8-1,1.5-2.1,1.5S15.3,6.8,15.3,6s1-1.5,2.1-1.5S19.6,5.2,19.6,6z"/>
</svg>
